<svg xmlns="http://www.w3.org/2000/svg" xmlns:xlink="http://www.w3.org/1999/xlink" width="90" zoomAndPan="magnify" viewBox="0 0 67.5 41.25" height="55" preserveAspectRatio="xMidYMid meet" version="1.0"><defs><g/></defs><g fill="#125e5f" fill-opacity="1"><g transform="translate(5.120341, 35.685088)"><g><path d="M 21.546875 -15.203125 C 21.753906 -15.203125 21.914062 -15.148438 22.03125 -15.046875 C 22.144531 -14.941406 22.203125 -14.800781 22.203125 -14.625 C 22.203125 -14.570312 22.191406 -14.488281 22.171875 -14.375 L 18 -0.515625 C 17.9375 -0.335938 17.847656 -0.207031 17.734375 -0.125 C 17.628906 -0.0390625 17.472656 0 17.265625 0 L 14.4375 0 C 14.039062 0 13.796875 -0.171875 13.703125 -0.515625 L 11.578125 -7.71875 C 11.535156 -7.894531 11.488281 -7.984375 11.4375 -7.984375 C 11.394531 -7.984375 11.332031 -7.882812 11.25 -7.6875 L 9.140625 -0.515625 C 9.078125 -0.335938 8.988281 -0.207031 8.875 -0.125 C 8.757812 -0.0390625 8.601562 0 8.40625 0 L 5.46875 0 C 5.257812 0 5.097656 -0.0390625 4.984375 -0.125 C 4.878906 -0.207031 4.796875 -0.335938 4.734375 -0.515625 L 0.546875 -14.375 C 0.523438 -14.488281 0.515625 -14.570312 0.515625 -14.625 C 0.515625 -14.800781 0.570312 -14.941406 0.6875 -15.046875 C 0.800781 -15.148438 0.960938 -15.203125 1.171875 -15.203125 L 4.546875 -15.203125 C 4.753906 -15.203125 4.90625 -15.164062 5 -15.09375 C 5.09375 -15.03125 5.160156 -14.921875 5.203125 -14.765625 L 7.375 -7.171875 C 7.414062 -7.003906 7.460938 -6.921875 7.515625 -6.921875 C 7.554688 -6.921875 7.59375 -6.976562 7.625 -7.09375 L 9.765625 -14.765625 C 9.835938 -15.054688 10.054688 -15.203125 10.421875 -15.203125 L 13.296875 -15.203125 C 13.503906 -15.203125 13.65625 -15.164062 13.75 -15.09375 C 13.84375 -15.03125 13.910156 -14.921875 13.953125 -14.765625 L 16.203125 -6.984375 C 16.234375 -6.898438 16.273438 -6.851562 16.328125 -6.84375 C 16.378906 -6.832031 16.410156 -6.863281 16.421875 -6.9375 L 18.515625 -14.765625 C 18.585938 -15.054688 18.804688 -15.203125 19.171875 -15.203125 Z M 21.546875 -15.203125 "/></g></g></g><g fill="#125e5f" fill-opacity="1"><g transform="translate(27.841414, 35.685088)"><g><path d="M 5.34375 -15.203125 C 5.59375 -15.203125 5.71875 -15.054688 5.71875 -14.765625 L 5.71875 -0.59375 C 5.71875 -0.375 5.660156 -0.21875 5.546875 -0.125 C 5.441406 -0.0390625 5.273438 0 5.046875 0 L 1.625 0 C 1.414062 0 1.269531 -0.0390625 1.1875 -0.125 C 1.101562 -0.207031 1.0625 -0.335938 1.0625 -0.515625 L 1.0625 -14.734375 C 1.0625 -14.878906 1.09375 -14.992188 1.15625 -15.078125 C 1.226562 -15.160156 1.328125 -15.203125 1.453125 -15.203125 Z M 5.34375 -15.203125 "/></g></g></g><g fill="#125e5f" fill-opacity="1"><g transform="translate(34.622899, 35.685088)"><g><path d="M 10.125 -11.125 C 9.789062 -11.476562 9.4375 -11.75 9.0625 -11.9375 C 8.6875 -12.132812 8.144531 -12.234375 7.4375 -12.234375 C 6.726562 -12.234375 6.203125 -12.128906 5.859375 -11.921875 C 5.515625 -11.710938 5.34375 -11.46875 5.34375 -11.1875 C 5.34375 -10.695312 5.78125 -10.347656 6.65625 -10.140625 L 10.0625 -9.265625 C 11.300781 -8.941406 12.234375 -8.390625 12.859375 -7.609375 C 13.492188 -6.828125 13.8125 -5.890625 13.8125 -4.796875 C 13.8125 -3.785156 13.539062 -2.90625 13 -2.15625 C 12.46875 -1.40625 11.707031 -0.820312 10.71875 -0.40625 C 9.726562 0 8.570312 0.203125 7.25 0.203125 C 5.75 0.203125 4.378906 -0.046875 3.140625 -0.546875 C 1.910156 -1.046875 1.054688 -1.695312 0.578125 -2.5 C 0.503906 -2.632812 0.46875 -2.738281 0.46875 -2.8125 C 0.46875 -2.945312 0.546875 -3.066406 0.703125 -3.171875 L 2.8125 -4.625 C 2.957031 -4.71875 3.09375 -4.765625 3.21875 -4.765625 C 3.363281 -4.765625 3.484375 -4.707031 3.578125 -4.59375 C 4.046875 -3.988281 4.519531 -3.5625 5 -3.3125 C 5.476562 -3.070312 6.113281 -2.953125 6.90625 -2.953125 C 7.664062 -2.953125 8.265625 -3.054688 8.703125 -3.265625 C 9.148438 -3.472656 9.375 -3.765625 9.375 -4.140625 C 9.375 -4.398438 9.265625 -4.625 9.046875 -4.8125 C 8.828125 -5 8.507812 -5.144531 8.09375 -5.25 L 4.984375 -6 C 3.753906 -6.300781 2.773438 -6.863281 2.046875 -7.6875 C 1.328125 -8.519531 0.96875 -9.472656 0.96875 -10.546875 C 0.96875 -11.429688 1.222656 -12.242188 1.734375 -12.984375 C 2.253906 -13.734375 2.992188 -14.320312 3.953125 -14.75 C 4.910156 -15.1875 6.015625 -15.40625 7.265625 -15.40625 C 8.492188 -15.40625 9.632812 -15.203125 10.6875 -14.796875 C 11.738281 -14.398438 12.5 -13.863281 12.96875 -13.1875 C 13.0625 -13.0625 13.109375 -12.945312 13.109375 -12.84375 C 13.109375 -12.75 13.0625 -12.660156 12.96875 -12.578125 L 10.734375 -10.953125 C 10.660156 -10.898438 10.585938 -10.875 10.515625 -10.875 C 10.410156 -10.875 10.28125 -10.957031 10.125 -11.125 Z M 10.125 -11.125 "/></g></g></g><g fill="#125e5f" fill-opacity="1"><g transform="translate(48.984911, 35.685088)"><g><path d="M 1.0625 -14.734375 C 1.0625 -15.046875 1.191406 -15.203125 1.453125 -15.203125 L 12.515625 -15.203125 C 12.765625 -15.203125 12.890625 -15.054688 12.890625 -14.765625 L 12.859375 -12.390625 C 12.859375 -12.023438 12.679688 -11.84375 12.328125 -11.84375 L 6.1875 -11.84375 C 5.875 -11.84375 5.71875 -11.710938 5.71875 -11.453125 L 5.71875 -9.703125 C 5.71875 -9.566406 5.75 -9.460938 5.8125 -9.390625 C 5.882812 -9.316406 5.972656 -9.28125 6.078125 -9.28125 L 9.765625 -9.28125 C 10.054688 -9.28125 10.203125 -9.144531 10.203125 -8.875 L 10.203125 -6.328125 C 10.203125 -6.097656 10.078125 -5.984375 9.828125 -5.984375 L 6.046875 -5.984375 C 5.953125 -5.984375 5.875 -5.953125 5.8125 -5.890625 C 5.75 -5.835938 5.71875 -5.769531 5.71875 -5.6875 L 5.71875 -3.640625 C 5.71875 -3.535156 5.734375 -3.460938 5.765625 -3.421875 C 5.796875 -3.378906 5.863281 -3.359375 5.96875 -3.359375 L 12.625 -3.359375 C 12.914062 -3.359375 13.0625 -3.226562 13.0625 -2.96875 L 13.0625 -0.453125 C 13.0625 -0.316406 13.019531 -0.207031 12.9375 -0.125 C 12.863281 -0.0390625 12.742188 0 12.578125 0 L 1.625 0 C 1.414062 0 1.269531 -0.0390625 1.1875 -0.125 C 1.101562 -0.207031 1.0625 -0.335938 1.0625 -0.515625 Z M 1.0625 -14.734375 "/></g></g></g><g fill="#125e5f" fill-opacity="1"><g transform="translate(3.326312, 18.309496)"><g><path d="M 9.796875 -10.765625 C 9.472656 -11.109375 9.128906 -11.375 8.765625 -11.5625 C 8.410156 -11.75 7.890625 -11.84375 7.203125 -11.84375 C 6.515625 -11.84375 6.003906 -11.742188 5.671875 -11.546875 C 5.335938 -11.347656 5.171875 -11.109375 5.171875 -10.828125 C 5.171875 -10.347656 5.59375 -10.007812 6.4375 -9.8125 L 9.734375 -8.96875 C 10.941406 -8.65625 11.847656 -8.117188 12.453125 -7.359375 C 13.054688 -6.597656 13.359375 -5.691406 13.359375 -4.640625 C 13.359375 -3.660156 13.097656 -2.804688 12.578125 -2.078125 C 12.066406 -1.347656 11.332031 -0.785156 10.375 -0.390625 C 9.414062 0.00390625 8.296875 0.203125 7.015625 0.203125 C 5.566406 0.203125 4.242188 -0.0351562 3.046875 -0.515625 C 1.847656 -1.003906 1.019531 -1.640625 0.5625 -2.421875 C 0.488281 -2.554688 0.453125 -2.65625 0.453125 -2.71875 C 0.453125 -2.851562 0.523438 -2.972656 0.671875 -3.078125 L 2.71875 -4.484375 C 2.863281 -4.578125 2.992188 -4.625 3.109375 -4.625 C 3.253906 -4.625 3.375 -4.5625 3.46875 -4.4375 C 3.914062 -3.851562 4.367188 -3.441406 4.828125 -3.203125 C 5.296875 -2.972656 5.914062 -2.859375 6.6875 -2.859375 C 7.425781 -2.859375 8.007812 -2.957031 8.4375 -3.15625 C 8.863281 -3.363281 9.078125 -3.644531 9.078125 -4 C 9.078125 -4.25 8.972656 -4.46875 8.765625 -4.65625 C 8.554688 -4.84375 8.242188 -4.984375 7.828125 -5.078125 L 4.8125 -5.8125 C 3.625 -6.101562 2.679688 -6.644531 1.984375 -7.4375 C 1.285156 -8.238281 0.9375 -9.164062 0.9375 -10.21875 C 0.9375 -11.070312 1.1875 -11.859375 1.6875 -12.578125 C 2.1875 -13.296875 2.898438 -13.863281 3.828125 -14.28125 C 4.753906 -14.695312 5.820312 -14.90625 7.03125 -14.90625 C 8.226562 -14.90625 9.332031 -14.707031 10.34375 -14.3125 C 11.363281 -13.925781 12.097656 -13.410156 12.546875 -12.765625 C 12.640625 -12.648438 12.6875 -12.539062 12.6875 -12.4375 C 12.6875 -12.34375 12.640625 -12.253906 12.546875 -12.171875 L 10.390625 -10.609375 C 10.328125 -10.554688 10.253906 -10.53125 10.171875 -10.53125 C 10.078125 -10.53125 9.953125 -10.609375 9.796875 -10.765625 Z M 9.796875 -10.765625 "/></g></g></g><g fill="#125e5f" fill-opacity="1"><g transform="translate(17.225101, 18.309496)"><g><path d="M 13.9375 -9.9375 C 13.9375 -8.976562 13.707031 -8.148438 13.25 -7.453125 C 12.800781 -6.753906 12.160156 -6.21875 11.328125 -5.84375 C 10.503906 -5.46875 9.554688 -5.28125 8.484375 -5.28125 L 5.765625 -5.28125 C 5.609375 -5.28125 5.53125 -5.207031 5.53125 -5.0625 L 5.53125 -0.578125 C 5.53125 -0.359375 5.476562 -0.207031 5.375 -0.125 C 5.269531 -0.0390625 5.101562 0 4.875 0 L 1.546875 0 C 1.347656 0 1.210938 -0.0351562 1.140625 -0.109375 C 1.066406 -0.191406 1.03125 -0.320312 1.03125 -0.5 L 1.03125 -14.25 C 1.03125 -14.5625 1.15625 -14.71875 1.40625 -14.71875 L 7.96875 -14.71875 C 9.082031 -14.71875 10.09375 -14.535156 11 -14.171875 C 11.90625 -13.804688 12.617188 -13.265625 13.140625 -12.546875 C 13.671875 -11.835938 13.9375 -10.96875 13.9375 -9.9375 Z M 9.34375 -10 C 9.34375 -10.457031 9.179688 -10.828125 8.859375 -11.109375 C 8.546875 -11.398438 8.15625 -11.546875 7.6875 -11.546875 L 5.984375 -11.546875 C 5.816406 -11.546875 5.695312 -11.507812 5.625 -11.4375 C 5.5625 -11.375 5.53125 -11.269531 5.53125 -11.125 L 5.53125 -8.890625 C 5.53125 -8.722656 5.554688 -8.609375 5.609375 -8.546875 C 5.660156 -8.484375 5.75 -8.453125 5.875 -8.453125 L 7.8125 -8.453125 C 8.269531 -8.453125 8.640625 -8.597656 8.921875 -8.890625 C 9.203125 -9.191406 9.34375 -9.5625 9.34375 -10 Z M 9.34375 -10 "/></g></g></g><g fill="#125e5f" fill-opacity="1"><g transform="translate(31.718697, 18.309496)"><g><path d="M 1.03125 -14.25 C 1.03125 -14.394531 1.0625 -14.507812 1.125 -14.59375 C 1.195312 -14.675781 1.289062 -14.71875 1.40625 -14.71875 L 5.171875 -14.71875 C 5.410156 -14.71875 5.53125 -14.578125 5.53125 -14.296875 L 5.53125 -3.53125 C 5.53125 -3.425781 5.546875 -3.351562 5.578125 -3.3125 C 5.609375 -3.269531 5.671875 -3.25 5.765625 -3.25 L 11.734375 -3.25 C 12.035156 -3.25 12.1875 -3.125 12.1875 -2.875 L 12.1875 -0.4375 C 12.1875 -0.300781 12.144531 -0.191406 12.0625 -0.109375 C 11.976562 -0.0351562 11.859375 0 11.703125 0 L 1.5625 0 C 1.363281 0 1.222656 -0.0351562 1.140625 -0.109375 C 1.066406 -0.191406 1.03125 -0.320312 1.03125 -0.5 Z M 1.03125 -14.25 "/></g></g></g><g fill="#125e5f" fill-opacity="1"><g transform="translate(44.467512, 18.309496)"><g><path d="M 5.171875 -14.71875 C 5.410156 -14.71875 5.53125 -14.578125 5.53125 -14.296875 L 5.53125 -0.578125 C 5.53125 -0.359375 5.476562 -0.207031 5.375 -0.125 C 5.269531 -0.0390625 5.101562 0 4.875 0 L 1.5625 0 C 1.363281 0 1.222656 -0.0351562 1.140625 -0.109375 C 1.066406 -0.191406 1.03125 -0.320312 1.03125 -0.5 L 1.03125 -14.25 C 1.03125 -14.394531 1.0625 -14.507812 1.125 -14.59375 C 1.195312 -14.675781 1.289062 -14.71875 1.40625 -14.71875 Z M 5.171875 -14.71875 "/></g></g></g><g fill="#125e5f" fill-opacity="1"><g transform="translate(51.030282, 18.309496)"><g><path d="M 0.5625 -14.25 C 0.5625 -14.382812 0.601562 -14.492188 0.6875 -14.578125 C 0.769531 -14.671875 0.890625 -14.71875 1.046875 -14.71875 L 12.90625 -14.71875 C 13.0625 -14.71875 13.179688 -14.671875 13.265625 -14.578125 C 13.359375 -14.492188 13.40625 -14.382812 13.40625 -14.25 L 13.40625 -11.890625 C 13.40625 -11.640625 13.257812 -11.515625 12.96875 -11.515625 L 9.453125 -11.515625 C 9.296875 -11.515625 9.21875 -11.453125 9.21875 -11.328125 L 9.21875 -0.4375 C 9.21875 -0.289062 9.179688 -0.179688 9.109375 -0.109375 C 9.046875 -0.0351562 8.957031 0 8.84375 0 L 5.078125 0 C 4.835938 0 4.71875 -0.128906 4.71875 -0.390625 L 4.71875 -11.25 C 4.71875 -11.425781 4.644531 -11.515625 4.5 -11.515625 L 1.015625 -11.515625 C 0.710938 -11.515625 0.5625 -11.640625 0.5625 -11.890625 Z M 0.5625 -14.25 "/></g></g></g></svg>